<svg width="23" height="22" viewBox="0 0 23 22" fill="none" xmlns="http://www.w3.org/2000/svg">
<path fill-rule="evenodd" clip-rule="evenodd" d="M5.08335 14.6667C5.63335 14.6667 6.00002 14.3 6.00002 13.75C6.00002 13.2 5.63335 12.8333 5.08335 12.8333H4.16669C3.61669 12.8333 3.25002 12.4667 3.25002 11.9167V3.66667C3.25002 3.11667 3.61669 2.75001 4.16669 2.75001H12.4167C12.9667 2.75001 13.3334 3.11667 13.3334 3.66667V4.58334C13.3334 5.13334 13.7 5.50001 14.25 5.50001C14.8 5.50001 15.1667 5.13334 15.1667 4.58334V3.66667C15.1667 2.10834 13.975 0.916672 12.4167 0.916672H4.16669C2.60835 0.916672 1.41669 2.10834 1.41669 3.66667V11.9167C1.41669 13.475 2.60835 14.6667 4.16669 14.6667H5.08335ZM18.8334 7.33334H10.5834C9.02502 7.33334 7.83335 8.52501 7.83335 10.0833V18.3333C7.83335 19.8917 9.02502 21.0833 10.5834 21.0833H18.8334C20.3917 21.0833 21.5834 19.8917 21.5834 18.3333V10.0833C21.5834 8.52501 20.3917 7.33334 18.8334 7.33334ZM19.75 18.3333C19.75 18.8833 19.3834 19.25 18.8334 19.25H10.5834C10.0334 19.25 9.66669 18.8833 9.66669 18.3333V10.0833C9.66669 9.53334 10.0334 9.16667 10.5834 9.16667H18.8334C19.3834 9.16667 19.75 9.53334 19.75 10.0833V18.3333Z" fill="#000"/>
<mask id="mask0_1_254" style="mask-type:alpha" maskUnits="userSpaceOnUse" x="1" y="0" width="21" height="22">
<path fill-rule="evenodd" clip-rule="evenodd" d="M5.08335 14.6667C5.63335 14.6667 6.00002 14.3 6.00002 13.75C6.00002 13.2 5.63335 12.8333 5.08335 12.8333H4.16669C3.61669 12.8333 3.25002 12.4667 3.25002 11.9167V3.66667C3.25002 3.11667 3.61669 2.75001 4.16669 2.75001H12.4167C12.9667 2.75001 13.3334 3.11667 13.3334 3.66667V4.58334C13.3334 5.13334 13.7 5.50001 14.25 5.50001C14.8 5.50001 15.1667 5.13334 15.1667 4.58334V3.66667C15.1667 2.10834 13.975 0.916672 12.4167 0.916672H4.16669C2.60835 0.916672 1.41669 2.10834 1.41669 3.66667V11.9167C1.41669 13.475 2.60835 14.6667 4.16669 14.6667H5.08335ZM18.8334 7.33334H10.5834C9.02502 7.33334 7.83335 8.52501 7.83335 10.0833V18.3333C7.83335 19.8917 9.02502 21.0833 10.5834 21.0833H18.8334C20.3917 21.0833 21.5834 19.8917 21.5834 18.3333V10.0833C21.5834 8.52501 20.3917 7.33334 18.8334 7.33334ZM19.75 18.3333C19.75 18.8833 19.3834 19.25 18.8334 19.25H10.5834C10.0334 19.25 9.66669 18.8833 9.66669 18.3333V10.0833C9.66669 9.53334 10.0334 9.16667 10.5834 9.16667H18.8334C19.3834 9.16667 19.75 9.53334 19.75 10.0833V18.3333Z" fill="000"/>
</mask>
<g mask="url(#mask0_1_254)">
<rect x="0.5" width="22" height="22" fill="#000"/>
</g>
</svg>
