<svg width="19" height="20" viewBox="0 0 19 20" fill="none" xmlns="http://www.w3.org/2000/svg">
<path d="M18.1667 1.75001V6.33334C18.1667 6.88334 17.8 7.25001 17.25 7.25001C16.7 7.25001 16.3333 6.88334 16.3333 6.33334V3.95001L2.30833 17.975C2.125 18.1583 1.94167 18.25 1.66667 18.25C1.39167 18.25 1.20833 18.1583 1.025 17.975C0.658333 17.6083 0.658333 17.0583 1.025 16.6917L15.05 2.66668H12.6667C12.1167 2.66668 11.75 2.30001 11.75 1.75001C11.75 1.20001 12.1167 0.833344 12.6667 0.833344H17.25C17.3417 0.833344 17.525 0.833344 17.6167 0.92501C17.8 1.01668 17.9833 1.20001 18.075 1.38334C18.1667 1.47501 18.1667 1.65834 18.1667 1.75001Z" fill="#000"/>
<path d="M17.25 12.75C16.7 12.75 16.3334 13.1167 16.3334 13.6667V16.05L12.3917 12.1083C12.025 11.7417 11.475 11.7417 11.1084 12.1083C10.7417 12.475 10.7417 13.025 11.1084 13.3917L15.05 17.3333H12.6667C12.1167 17.3333 11.75 17.7 11.75 18.25C11.75 18.8 12.1167 19.1667 12.6667 19.1667H17.25C17.3417 19.1667 17.525 19.1667 17.6167 19.075C17.8 18.9833 17.9834 18.8 18.075 18.6167C18.1667 18.525 18.1667 18.3417 18.1667 18.25V13.6667C18.1667 13.1167 17.8 12.75 17.25 12.75Z" fill="#000"/>
<path d="M6.25 8.16667C5.975 8.16667 5.79167 8.075 5.60833 7.89167L1.025 3.30833C0.658333 2.94167 0.658333 2.39167 1.025 2.025C1.39167 1.65833 1.94167 1.65833 2.30833 2.025L6.89167 6.60833C7.25833 6.975 7.25833 7.525 6.89167 7.89167C6.70833 8.075 6.525 8.16667 6.25 8.16667Z" fill="#000"/>
</svg>
