<svg width="20" height="21" viewBox="0 0 20 21" fill="none" xmlns="http://www.w3.org/2000/svg">
<path d="M1 16.75V10.1301C1 8.98143 1 8.40707 1.14805 7.87813C1.2792 7.4096 1.49473 6.96892 1.78405 6.57774C2.11067 6.13614 2.56404 5.78352 3.47078 5.07828L6.07078 3.05606L6.07079 3.05605C7.47608 1.96305 8.17873 1.41654 8.95461 1.20647C9.63921 1.02111 10.3608 1.02111 11.0454 1.20647C11.8213 1.41654 12.5239 1.96305 13.9292 3.05606L16.5292 5.07828C17.436 5.78352 17.8893 6.13614 18.2159 6.57774C18.5053 6.96892 18.7208 7.4096 18.8519 7.87813C19 8.40707 19 8.98143 19 10.1301V16.75C19 17.4478 19 17.7967 18.9139 18.0806C18.72 18.7198 18.2198 19.22 17.5806 19.4139C17.2967 19.5 16.9478 19.5 16.25 19.5H15.625C15.5089 19.5 15.4509 19.5 15.4019 19.4976C14.3745 19.4471 13.5529 18.6255 13.5024 17.5981C13.5 17.5491 13.5 17.4911 13.5 17.375V14.5C13.5 12.567 11.933 11 10 11C8.067 11 6.5 12.567 6.5 14.5V17.375C6.5 17.4911 6.5 17.5491 6.49759 17.5981C6.44712 18.6255 5.62554 19.4471 4.59813 19.4976C4.5491 19.5 4.49107 19.5 4.375 19.5H3.75C3.05222 19.5 2.70333 19.5 2.41943 19.4139C1.78023 19.22 1.28002 18.7198 1.08612 18.0806C1 17.7967 1 17.4478 1 16.75Z" stroke="#000" stroke-width="1.8"/>
</svg>
