<svg width="22" height="22" viewBox="0 0 22 22" fill="none" xmlns="http://www.w3.org/2000/svg">
<path d="M11.8053 4.79943C12.1569 4.79943 12.4392 4.92728 12.6523 5.18297C12.876 5.43866 12.9772 5.75295 12.9559 6.12584C12.9453 6.48807 12.8227 6.79704 12.5884 7.05273C12.354 7.29777 12.061 7.42029 11.7094 7.42029C11.3472 7.42029 11.0542 7.29777 10.8305 7.05273C10.6174 6.79704 10.5162 6.48807 10.5268 6.12584C10.5481 5.75295 10.6866 5.43866 10.9423 5.18297C11.198 4.92728 11.4857 4.79943 11.8053 4.79943Z" fill="#000"/>
<path d="M11.246 8.8266C11.8 8.8266 12.1835 8.99706 12.3966 9.33799C12.6203 9.66826 12.7322 10.1157 12.7322 10.6804C12.7322 10.9361 12.7055 11.2823 12.6523 11.7191C12.599 12.1559 12.5404 12.6141 12.4765 13.0935C12.4126 13.5729 12.354 14.0097 12.3007 14.4039C12.2474 14.7981 12.2208 15.0858 12.2208 15.2669C12.2208 15.4373 12.2474 15.5492 12.3007 15.6025C12.354 15.6558 12.4072 15.6824 12.4605 15.6824C12.5884 15.6824 12.7162 15.5918 12.844 15.4107C12.9719 15.2296 13.1051 14.8993 13.2436 14.4199L14.1065 14.6756C14.0639 14.8993 13.9787 15.155 13.8508 15.4427C13.7336 15.7303 13.5738 16.0073 13.3714 16.2737C13.169 16.5294 12.924 16.7424 12.6363 16.9129C12.3593 17.0834 12.0397 17.1686 11.6774 17.1686C11.0915 17.1686 10.6866 17.0088 10.4629 16.6892C10.2498 16.3696 10.1433 15.9274 10.1433 15.3628C10.1433 15.0538 10.1699 14.6862 10.2232 14.2601C10.2765 13.8339 10.3351 13.3971 10.399 12.9497C10.4736 12.5022 10.5375 12.0867 10.5907 11.7032C10.644 11.309 10.6707 10.984 10.6707 10.7283C10.6707 10.5472 10.644 10.4353 10.5907 10.3927C10.5375 10.3395 10.4789 10.3128 10.415 10.3128C10.2978 10.3128 10.1752 10.4034 10.0474 10.5845C9.91955 10.7656 9.78638 11.0959 9.64788 11.5753L8.78491 11.3196C8.82753 11.0959 8.91276 10.8402 9.0406 10.5525C9.16845 10.2649 9.33359 9.99321 9.53601 9.73751C9.74909 9.47116 9.99413 9.25276 10.2711 9.0823C10.5588 8.91183 10.8837 8.8266 11.246 8.8266Z" fill="#000"/>
<path fill-rule="evenodd" clip-rule="evenodd" d="M3.23114 18.7689C-1.07705 14.4607 -1.07705 7.53933 3.23114 3.23114C7.53933 -1.07705 14.4607 -1.07705 18.7689 3.23114C23.077 7.53933 23.077 14.4607 18.7689 18.7689C14.4607 23.077 7.53933 23.077 3.23114 18.7689ZM17.3564 4.64366C13.8251 1.11236 8.17502 1.11236 4.64372 4.64366C1.11242 8.17496 1.11242 13.825 4.64372 17.3563C8.17502 20.8876 13.8251 20.8876 17.3564 17.3563C20.8877 13.825 20.8877 8.17496 17.3564 4.64366Z" fill="#000"/>
</svg>
