<svg width="22" height="22" viewBox="0 0 22 22" fill="none" xmlns="http://www.w3.org/2000/svg">
<path fill-rule="evenodd" clip-rule="evenodd" d="M10.0833 4.01394L7.975 6.12467C7.60833 6.49176 7.05833 6.49176 6.69167 6.12467C6.325 5.75759 6.325 5.20696 6.69167 4.83988L10.3583 1.16904C10.4042 1.12316 10.45 1.10021 10.4958 1.07727C10.5417 1.05433 10.5875 1.03139 10.6333 0.9855C10.9083 0.893729 11.1833 0.893729 11.3667 0.9855C11.4583 0.9855 11.55 1.07727 11.6417 1.16904L15.3083 4.83988C15.675 5.20696 15.675 5.75759 15.3083 6.12467C15.125 6.30821 14.9417 6.39999 14.6667 6.39999C14.3917 6.39999 14.2083 6.30821 14.025 6.12467L11.9167 4.01394V13.7417C11.9167 14.2923 11.55 14.6594 11 14.6594C10.45 14.6594 10.0833 14.2923 10.0833 13.7417V4.01394ZM19.25 18.3302V10.9885C19.25 10.4379 18.8833 10.0708 18.3333 10.0708C17.7833 10.0708 17.4167 10.4379 17.4167 10.9885V18.3302C17.4167 18.8808 17.05 19.2479 16.5 19.2479H5.5C4.95 19.2479 4.58333 18.8808 4.58333 18.3302V10.9885C4.58333 10.4379 4.21667 10.0708 3.66667 10.0708C3.11667 10.0708 2.75 10.4379 2.75 10.9885V18.3302C2.75 19.8903 3.94167 21.0833 5.5 21.0833H16.5C18.0583 21.0833 19.25 19.8903 19.25 18.3302Z" fill="#000"/>
<mask id="mask0_1_267" style="mask-type:alpha" maskUnits="userSpaceOnUse" x="2" y="0" width="18" height="22">
<path fill-rule="evenodd" clip-rule="evenodd" d="M10.0833 4.01394L7.975 6.12467C7.60833 6.49176 7.05833 6.49176 6.69167 6.12467C6.325 5.75759 6.325 5.20696 6.69167 4.83988L10.3583 1.16904C10.4042 1.12316 10.45 1.10021 10.4958 1.07727C10.5417 1.05433 10.5875 1.03139 10.6333 0.9855C10.9083 0.893729 11.1833 0.893729 11.3667 0.9855C11.4583 0.9855 11.55 1.07727 11.6417 1.16904L15.3083 4.83988C15.675 5.20696 15.675 5.75759 15.3083 6.12467C15.125 6.30821 14.9417 6.39999 14.6667 6.39999C14.3917 6.39999 14.2083 6.30821 14.025 6.12467L11.9167 4.01394V13.7417C11.9167 14.2923 11.55 14.6594 11 14.6594C10.45 14.6594 10.0833 14.2923 10.0833 13.7417V4.01394ZM19.25 18.3302V10.9885C19.25 10.4379 18.8833 10.0708 18.3333 10.0708C17.7833 10.0708 17.4167 10.4379 17.4167 10.9885V18.3302C17.4167 18.8808 17.05 19.2479 16.5 19.2479H5.5C4.95 19.2479 4.58333 18.8808 4.58333 18.3302V10.9885C4.58333 10.4379 4.21667 10.0708 3.66667 10.0708C3.11667 10.0708 2.75 10.4379 2.75 10.9885V18.3302C2.75 19.8903 3.94167 21.0833 5.5 21.0833H16.5C18.0583 21.0833 19.25 19.8903 19.25 18.3302Z" fill="#000"/>
</mask>
<g mask="url(#mask0_1_267)">
<rect width="22" height="22" fill="#000"/>
</g>
</svg>
