<svg width="22" height="22" viewBox="0 0 22 22" fill="none" xmlns="http://www.w3.org/2000/svg">
<path fill-rule="evenodd" clip-rule="evenodd" d="M11.6 9.62503C11.6 10.0529 11.9471 10.4 12.375 10.4H20.625C21.0529 10.4 21.4 10.0529 21.4 9.62499C21.3999 4.64835 17.3516 0.600006 12.375 0.600006C11.9471 0.600006 11.6 0.947106 11.6 1.37502V9.62503ZM13.15 8.84998V2.19004C16.6538 2.55252 19.4474 5.34614 19.8099 8.84998H13.15Z" fill="#000"/>
<path fill-rule="evenodd" clip-rule="evenodd" d="M9.95545 4.36958V12.2308L15.228 18.6723C15.5013 19.0071 15.4407 19.4898 15.1045 19.7527C14.3225 20.3637 13.6038 20.7822 12.7824 21.0434C11.9645 21.3035 11.0689 21.4 9.94431 21.4C4.81104 21.4 0.599976 17.4267 0.599976 12.5C0.599976 7.60752 4.42741 3.60001 9.16656 3.60001C9.58268 3.60001 9.95545 3.92571 9.95545 4.36958ZM2.17773 12.5C2.17773 16.5397 5.64249 19.8609 9.94431 19.8609C10.7915 19.8609 11.4386 19.8022 12 19.6617C12.0469 19.6499 12.0932 19.6376 12.1389 19.6248C12.6077 19.4927 13.0335 19.2957 13.4828 19.0066L8.55158 12.9815C8.44013 12.8462 8.37766 12.6763 8.37766 12.5V5.18557C4.90887 5.59888 2.17773 8.70691 2.17773 12.5Z" fill="#000"/>
<path fill-rule="evenodd" clip-rule="evenodd" d="M18.6202 19.1802L18.619 19.1814C18.4796 19.3186 18.2913 19.4 18.0904 19.4L18.0889 19.4C18.0807 19.4 18.0582 19.4001 18.0323 19.3979C17.8153 19.3806 17.6189 19.2706 17.4884 19.0972L17.4876 19.0962L12.7625 12.8725C12.5847 12.6392 12.5502 12.3234 12.6697 12.0569C12.7904 11.7875 13.0564 11.6 13.3634 11.6H20.6357C21.0803 11.6 21.3993 11.9761 21.3993 12.3869C21.3993 14.9487 20.3893 17.4243 18.6202 19.1802ZM18.1396 17.4005C19.0883 16.2108 19.6829 14.7315 19.834 13.1738H14.9307L18.1396 17.4005Z" fill="#000"/>
</svg>
