<svg width="22" height="16" viewBox="0 0 22 16" fill="none" xmlns="http://www.w3.org/2000/svg">
<path fill-rule="evenodd" clip-rule="evenodd" d="M21.9 3.00001C21.9 1.39838 20.6016 0.100006 19 0.100006H2.99999C1.39837 0.100006 0.0999947 1.39838 0.0999947 3.00001V5.00001V13C0.0999947 14.6016 1.39837 15.9 2.99999 15.9H19C20.6016 15.9 21.9 14.6016 21.9 13V5.00001V3.00001ZM19 1.90001C19.6075 1.90001 20.1 2.39249 20.1 3.00001V4.10001H1.89999V3.00001C1.89999 2.39249 2.39248 1.90001 2.99999 1.90001H19ZM1.89999 5.90001H20.1V13C20.1 13.6075 19.6075 14.1 19 14.1H2.99999C2.39248 14.1 1.89999 13.6075 1.89999 13V5.90001ZM9.89999 11C9.89999 10.5029 9.49705 10.1 8.99999 10.1H4.99999C4.50294 10.1 4.09999 10.5029 4.09999 11C4.09999 11.4971 4.50294 11.9 4.99999 11.9H8.99999C9.49705 11.9 9.89999 11.4971 9.89999 11Z" fill="#000"/>
</svg>
